<svg width="751mm" height="175mm" viewBox="0 0 751 175" xmlns="http://www.w3.org/2000/svg"><defs><path id="a" d="M844.765 358.597h2076.217v482.954H844.765z"/></defs><text xml:space="preserve" transform="matrix(.31423 0 0 .30957 -112.661 -98.099)" style="font-style:normal;font-variant:normal;font-weight:700;font-stretch:normal;font-size:400px;font-family:monospace;-inkscape-font-specification:'monospace Bold';white-space:pre;shape-inside:url(#a);opacity:1;fill:#fff;fill-opacity:1"><tspan x="844.766" y="712.504"><tspan style="font-size:333.333px">HELPNANCE</tspan></tspan></text><path style="opacity:1;fill:#00eaf7;fill-opacity:1;stroke-width:.109193" d="M76.889 0 9.619 47.286l15.196 10.302v6.22H9.619v58.764l67.27 47.286 67.242-47.286V47.286Z"/><g style="display:inline"><path style="display:inline;fill:#fff;fill-opacity:1;stroke-width:.0554857" d="M9.619 63.807v58.765h15.196V63.807Z"/><path style="display:inline;fill:#fff;fill-opacity:1;stroke-width:.0554857" d="M73.935 85.592H15.17v15.195h58.765z"/><path style="display:inline;fill:#fff;fill-opacity:1;stroke-width:.08897" d="M70.262 50.464 69.19 164.508h15.196l1.07-114.044Z"/><path style="display:inline;fill:#fff;fill-opacity:1;stroke-width:.062803" d="M76.86 0 9.62 47.286l15.196 10.302 61.59-47.286ZM76.86 169.858 9.62 122.572l9.544-10.302 67.242 47.286ZM144.131 47.286v75.286h-15.196V47.286Z"/><path style="display:inline;fill:#fff;fill-opacity:1;stroke-width:.062803" d="m76.889 0 67.242 47.286-9.544 10.302-67.243-47.286ZM85.458 64.443l51.612 51.548-13.085 5.1-51.612-51.548z"/><path style="display:inline;fill:#fff;fill-opacity:1;stroke-width:.062803" d="m76.889 169.858 67.242-47.286-9.544-10.302-67.243 47.286z"/><path style="opacity:1;fill:#fff;fill-opacity:1;stroke-width:.180163" d="M78.395 31.918 61.531 50.826h9.802l7.062.187 7.063-.187h9.801z"/></g></svg>